<svg id="Layer_1" data-name="Layer 1" xmlns="http://www.w3.org/2000/svg" xmlns:xlink="http://www.w3.org/1999/xlink" viewBox="0 0 653 367.31"><defs><style>.cls-1{fill:#333;}.cls-2,.cls-22{fill:#fff;}.cls-2{opacity:0.14;}.cls-10,.cls-12,.cls-14,.cls-16,.cls-19,.cls-2,.cls-21,.cls-23,.cls-3,.cls-5,.cls-8{isolation:isolate;}.cls-10,.cls-12,.cls-14,.cls-16,.cls-19,.cls-3,.cls-8{opacity:0.34;}.cls-3{fill:url(#linear-gradient);}.cls-11,.cls-13,.cls-15,.cls-17,.cls-20,.cls-4,.cls-9{fill:none;stroke-miterlimit:10;stroke-width:0.75px;}.cls-4{stroke:url(#linear-gradient-2);}.cls-5{opacity:0.42;}.cls-21,.cls-6{opacity:0.8;}.cls-7{fill:#76b900;}.cls-8{fill:url(#linear-gradient-3);}.cls-9{stroke:url(#linear-gradient-4);}.cls-10{fill:url(#linear-gradient-5);}.cls-11{stroke:url(#linear-gradient-6);}.cls-12{fill:url(#linear-gradient-7);}.cls-13{stroke:url(#linear-gradient-8);}.cls-14{fill:url(#linear-gradient-9);}.cls-15{stroke:url(#linear-gradient-10);}.cls-16{fill:url(#linear-gradient-11);}.cls-17{stroke:url(#linear-gradient-12);}.cls-18{opacity:0.75;}.cls-19{fill:url(#linear-gradient-13);}.cls-20{stroke:url(#linear-gradient-14);}</style><linearGradient id="linear-gradient" x1="564.83" y1="124.3" x2="564.83" y2="14.13" gradientTransform="matrix(1, 0, 0, -1, 0, 272)" gradientUnits="userSpaceOnUse"><stop offset="0" stop-color="#fff"/><stop offset="1"/></linearGradient><linearGradient id="linear-gradient-2" x1="389.35" y1="715.18" x2="433.1" y2="664.92" gradientTransform="matrix(0.87, 0.5, 0, -1.15, 207.74, 719.88)" gradientUnits="userSpaceOnUse"><stop offset="0" stop-color="#ddaeff" stop-opacity="0"/><stop offset="0.05" stop-color="#e1b7ff" stop-opacity="0.11"/><stop offset="0.28" stop-color="#f1ddff" stop-opacity="0.58"/><stop offset="0.44" stop-color="#fbf6ff" stop-opacity="0.88"/><stop offset="0.52" stop-color="#fff"/><stop offset="0.8" stop-color="#faf2ff" stop-opacity="0.39"/><stop offset="1" stop-color="#f6eaff" stop-opacity="0"/></linearGradient><linearGradient id="linear-gradient-3" x1="484.24" y1="124.3" x2="484.24" y2="14.13" xlink:href="#linear-gradient"/><linearGradient id="linear-gradient-4" x1="296.54" y1="675.1" x2="340.3" y2="624.84" xlink:href="#linear-gradient-2"/><linearGradient id="linear-gradient-5" x1="403.63" y1="124.3" x2="403.63" y2="14.13" xlink:href="#linear-gradient"/><linearGradient id="linear-gradient-6" x1="203.73" y1="635.03" x2="247.48" y2="584.76" xlink:href="#linear-gradient-2"/><linearGradient id="linear-gradient-7" x1="323.04" y1="124.3" x2="323.04" y2="14.13" xlink:href="#linear-gradient"/><linearGradient id="linear-gradient-8" x1="110.91" y1="594.94" x2="154.67" y2="544.68" xlink:href="#linear-gradient-2"/><linearGradient id="linear-gradient-9" x1="242.45" y1="124.3" x2="242.45" y2="14.13" xlink:href="#linear-gradient"/><linearGradient id="linear-gradient-10" x1="18.11" y1="554.86" x2="61.86" y2="504.61" xlink:href="#linear-gradient-2"/><linearGradient id="linear-gradient-11" x1="161.86" y1="124.3" x2="161.86" y2="14.13" xlink:href="#linear-gradient"/><linearGradient id="linear-gradient-12" x1="-74.7" y1="514.8" x2="-30.95" y2="464.53" xlink:href="#linear-gradient-2"/><linearGradient id="linear-gradient-13" x1="81.27" y1="124.3" x2="81.27" y2="14.13" xlink:href="#linear-gradient"/><linearGradient id="linear-gradient-14" x1="-167.51" y1="474.72" x2="-123.77" y2="424.47" xlink:href="#linear-gradient-2"/></defs><polygon class="cls-1" points="612.91 152.56 608.63 155.03 521.03 104.46 525.32 101.99 612.91 152.56"/><polygon class="cls-2" points="612.91 152.56 608.63 155.03 521.03 104.46 525.32 101.99 612.91 152.56"/><polygon class="cls-1" points="521.03 104.46 521.03 211.66 608.63 262.23 608.63 155.03 521.03 104.46"/><polygon class="cls-3" points="521.03 104.46 521.03 211.66 608.63 262.23 608.63 155.03 521.03 104.46"/><line class="cls-4" x1="521.03" y1="104.46" x2="607.86" y2="154.96"/><polygon class="cls-1" points="612.91 152.56 608.63 155.03 608.63 262.23 612.91 259.76 612.91 152.56"/><polygon class="cls-5" points="612.91 152.56 608.63 155.03 608.63 262.23 612.91 259.76 612.91 152.56"/><g class="cls-6"><path class="cls-7" d="M599.36,246.66l-71-41v-59.8l71,41Zm-70.08-41.52,69.17,39.93V187.38l-69.24-39.93Z"/><path class="cls-7" d="M539.43,212.21l-6.15-3.62c-1.62-1-3.14-1.86-4.54-2.66v-1.09c1.42.81,2.93,1.7,4.55,2.67,15.16,9,38.07,22.59,52.41,14.53,8.42-4.71,12.68-16.56,12.68-35.21l.91.52c0,19-4.35,31-12.94,35.83C573.58,230.41,554.31,220.81,539.43,212.21Z"/></g><polygon class="cls-1" points="532.31 152.56 528.03 155.03 440.44 104.46 444.71 101.99 532.31 152.56"/><polygon class="cls-2" points="532.31 152.56 528.03 155.03 440.44 104.46 444.71 101.99 532.31 152.56"/><polygon class="cls-1" points="440.44 104.46 440.44 211.66 528.03 262.23 528.03 155.03 440.44 104.46"/><polygon class="cls-8" points="440.44 104.46 440.44 211.66 528.03 262.23 528.03 155.03 440.44 104.46"/><line class="cls-9" x1="440.44" y1="104.46" x2="527.27" y2="154.96"/><polygon class="cls-1" points="532.31 152.56 528.03 155.03 528.03 262.23 532.31 259.76 532.31 152.56"/><polygon class="cls-5" points="532.31 152.56 528.03 155.03 528.03 262.23 532.31 259.76 532.31 152.56"/><g class="cls-6"><path class="cls-7" d="M519.55,247.67l-71-41V146.86l71,41Zm-70.09-41.52L518.63,246V188.39l-69.17-39.93Z"/><path class="cls-7" d="M478.17,210.52l-.17-.1c-3.21-2-5.95-7.1-7.33-13.58l-3.08-14.46c-1.24-5.82-3.7-10.53-6.41-12.26-2.46-1.56-4.76-.45-6.21,2.93L449.43,186l-.85-.88,5.54-13c1.62-3.8,4.26-4.95,7.1-3.07,3.17,2,5.87,7.1,7.25,13.51l3,14.43c1.25,5.91,3.73,10.61,6.48,12.3s4.95.27,6.36-3.53l1.89-5.09c1.42-4,4.05-5.46,6.9-3.94s5.15,5.18,6.78,10.29c1.42,4.47,3.49,7.78,5.68,9.08h0c2.19,1.26,4.26.41,5.68-2.35l7.29-14.12.84.93-7.2,14.17c-1.58,3.07-4,4-6.51,2.49h0c-2.58-1.51-5-5.21-6.55-10.17-1.42-4.62-3.59-7.93-5.89-9.16s-4.73.08-6.08,3.7l-1.89,5.09C483.74,210.76,481.1,212.18,478.17,210.52Z"/></g><polygon class="cls-1" points="451.72 152.56 447.43 155.03 359.83 104.46 364.12 101.99 451.72 152.56"/><polygon class="cls-2" points="451.72 152.56 447.43 155.03 359.83 104.46 364.12 101.99 451.72 152.56"/><polygon class="cls-1" points="359.83 104.46 359.83 211.66 447.43 262.23 447.43 155.03 359.83 104.46"/><polygon class="cls-10" points="359.83 104.46 359.83 211.66 447.43 262.23 447.43 155.03 359.83 104.46"/><line class="cls-11" x1="359.83" y1="104.46" x2="446.68" y2="154.96"/><polygon class="cls-1" points="451.72 152.56 447.43 155.03 447.43 262.23 451.72 259.76 451.72 152.56"/><polygon class="cls-5" points="451.72 152.56 447.43 155.03 447.43 262.23 451.72 259.76 451.72 152.56"/><g class="cls-6"><ellipse class="cls-7" cx="378.41" cy="162.34" rx="1.55" ry="2.68" transform="translate(-30.57 210.14) rotate(-29.89)"/><ellipse class="cls-7" cx="390.5" cy="176.41" rx="1.55" ry="2.68" transform="translate(-35.97 218.04) rotate(-29.89)"/><ellipse class="cls-7" cx="400.56" cy="178.04" rx="1.55" ry="2.67" transform="translate(-35.36 224.13) rotate(-30)"/><ellipse class="cls-7" cx="412.22" cy="194.21" rx="1.55" ry="2.67" transform="translate(-41.88 232.13) rotate(-30)"/><ellipse class="cls-7" cx="431.82" cy="192.53" rx="1.55" ry="2.68" transform="translate(-38.51 240.77) rotate(-29.89)"/><ellipse class="cls-7" cx="414.48" cy="182.74" rx="1.55" ry="2.67" transform="translate(-35.84 231.72) rotate(-30)"/><ellipse class="cls-7" cx="376.84" cy="177.49" rx="1.55" ry="2.67" transform="translate(-38.26 212.2) rotate(-30)"/><ellipse class="cls-7" cx="390.79" cy="189.14" rx="1.55" ry="2.67" transform="translate(-42.21 220.74) rotate(-30)"/><ellipse class="cls-7" cx="409.43" cy="219.27" rx="1.55" ry="2.67" transform="translate(-54.78 234.09) rotate(-30)"/><ellipse class="cls-7" cx="420.17" cy="213.17" rx="1.55" ry="2.67" transform="translate(-50.29 238.64) rotate(-30)"/><ellipse class="cls-7" cx="428.02" cy="204.69" rx="1.55" ry="2.68" transform="translate(-45.07 240.5) rotate(-29.89)"/><ellipse class="cls-7" cx="432.62" cy="224.22" rx="1.55" ry="2.68" transform="translate(-54.19 245.39) rotate(-29.89)"/><ellipse class="cls-7" cx="409.21" cy="204.54" rx="1.55" ry="2.68" transform="translate(-47.5 231.11) rotate(-29.89)"/><ellipse class="cls-7" cx="384.24" cy="195.14" rx="1.55" ry="2.68" transform="translate(-46.14 217.41) rotate(-29.89)"/><ellipse class="cls-7" cx="378.41" cy="203.04" rx="1.55" ry="2.68" transform="translate(-50.85 215.55) rotate(-29.89)"/><ellipse class="cls-7" cx="392.39" cy="211.17" rx="1.55" ry="2.67" transform="translate(-53.02 224.49) rotate(-30)"/><ellipse class="cls-7" cx="401.44" cy="205.56" rx="1.55" ry="2.68" transform="translate(-49.04 227.37) rotate(-29.89)"/><ellipse class="cls-7" cx="423.89" cy="229.82" rx="1.55" ry="2.67" transform="translate(-58.12 242.73) rotate(-30)"/><path class="cls-7" d="M438.58,246.65l-71-41V145.84l71,41Zm-70.09-41.53,69.16,39.94V187.37l-69.16-39.94Z"/></g><polygon class="cls-1" points="371.13 152.56 366.84 155.03 279.24 104.46 283.53 101.99 371.13 152.56"/><polygon class="cls-2" points="371.13 152.56 366.84 155.03 279.24 104.46 283.53 101.99 371.13 152.56"/><polygon class="cls-1" points="279.24 104.46 279.24 211.66 366.84 262.23 366.84 155.03 279.24 104.46"/><polygon class="cls-12" points="279.24 104.46 279.24 211.66 366.84 262.23 366.84 155.03 279.24 104.46"/><line class="cls-13" x1="279.24" y1="104.46" x2="366.07" y2="154.96"/><polygon class="cls-1" points="371.13 152.56 366.84 155.03 366.84 262.23 371.13 259.76 371.13 152.56"/><polygon class="cls-5" points="371.13 152.56 366.84 155.03 366.84 262.23 371.13 259.76 371.13 152.56"/><g class="cls-6"><path class="cls-7" d="M356.2,241.29l-65.11-92,65.12,37.61ZM293.93,152l61.36,86.66V187.45Z"/><polygon class="cls-7" points="349.11 242.53 285.11 152.15 285.65 151.59 349.65 241.99 349.11 242.53"/><polygon class="cls-7" points="355.47 240.27 292.23 150.94 292.77 150.39 356.01 239.72 355.47 240.27"/><path class="cls-7" d="M350.76,243.61l-65.61-37.88v-55Zm-64.7-38.36,61.86,35.66-61.86-87.57Z"/></g><polygon class="cls-1" points="290.52 152.56 286.25 155.03 198.65 104.46 202.94 101.99 290.52 152.56"/><polygon class="cls-2" points="290.52 152.56 286.25 155.03 198.65 104.46 202.94 101.99 290.52 152.56"/><polygon class="cls-1" points="198.65 104.46 198.65 211.66 286.25 262.23 286.25 155.03 198.65 104.46"/><polygon class="cls-14" points="198.65 104.46 198.65 211.66 286.25 262.23 286.25 155.03 198.65 104.46"/><line class="cls-15" x1="198.65" y1="104.46" x2="285.48" y2="154.96"/><polygon class="cls-1" points="290.52 152.56 286.25 155.03 286.25 262.23 290.52 259.76 290.52 152.56"/><polygon class="cls-5" points="290.52 152.56 286.25 155.03 286.25 262.23 290.52 259.76 290.52 152.56"/><g class="cls-6"><polygon class="cls-7" points="272 244.57 271.34 243.45 277.84 239.7 277.84 189.35 215.71 153.49 209.31 155.89 208.72 154.74 215.39 152.24 278.75 188.81 278.75 240.67 272 244.57"/><polygon class="cls-7" points="219.83 214.07 218.91 213.55 218.91 161.03 219.83 161.55 219.83 214.07"/><polygon class="cls-7" points="232.94 221.65 232.02 221.12 232.02 168.6 232.94 169.13 232.94 221.65"/><polygon class="cls-7" points="271.67 227.12 209.01 190.95 209.01 189.88 271.67 226.06 271.67 227.12"/><polygon class="cls-7" points="232.48 221.11 219.42 213.56 219.42 196.23 232.48 203.77 232.48 221.11"/><path class="cls-7" d="M271.67,244.62,209,208.43a1,1,0,0,1-.46-.79V155.12c0-.3.2-.41.46-.27L271.67,191a1,1,0,0,1,.46.8v52.56C272.13,244.62,271.93,244.69,271.67,244.62Zm-62.19-36.94L271.2,243.2V191.76l-61.72-35.65Z"/><polygon class="cls-7" points="271.97 192.07 271.39 190.9 278.01 188.5 278.57 189.67 271.97 192.07"/></g><polygon class="cls-1" points="209.93 152.56 205.66 155.03 118.06 104.46 122.34 101.99 209.93 152.56"/><polygon class="cls-2" points="209.93 152.56 205.66 155.03 118.06 104.46 122.34 101.99 209.93 152.56"/><polygon class="cls-1" points="118.06 104.46 118.06 211.66 205.66 262.23 205.66 155.03 118.06 104.46"/><polygon class="cls-16" points="118.06 104.46 118.06 211.66 205.66 262.23 205.66 155.03 118.06 104.46"/><line class="cls-17" x1="118.06" y1="104.46" x2="204.89" y2="154.96"/><polygon class="cls-1" points="209.93 152.56 205.66 155.03 205.66 262.23 209.93 259.76 209.93 152.56"/><polygon class="cls-5" points="209.93 152.56 205.66 155.03 205.66 262.23 209.93 259.76 209.93 152.56"/><g class="cls-18"><path class="cls-7" d="M198.31,248.69l-71-41V147.89l71,41Zm-70.09-41.52,69.11,39.93V189.41l-69.11-40Z"/><path class="cls-7" d="M197.86,248.11a.81.81,0,0,1-.27-.25L127.49,149c-.2-.3-.25-.66-.1-.81s.44,0,.64.25l70.1,98.91c.2.28.25.64.1.79A.29.29,0,0,1,197.86,248.11Z"/><polygon class="cls-7" points="191.22 244.5 127.22 154.12 127.76 153.57 191.76 243.95 191.22 244.5"/><polygon class="cls-7" points="197.59 242.23 134.34 152.92 134.88 152.36 198.13 241.69 197.59 242.23"/></g><polygon class="cls-1" points="129.34 152.56 125.06 155.03 37.47 104.46 41.75 101.99 129.34 152.56"/><polygon class="cls-2" points="129.34 152.56 125.06 155.03 37.47 104.46 41.75 101.99 129.34 152.56"/><polygon class="cls-1" points="37.47 104.46 37.47 211.66 125.06 262.23 125.06 155.03 37.47 104.46"/><polygon class="cls-19" points="37.47 104.46 37.47 211.66 125.06 262.23 125.06 155.03 37.47 104.46"/><line class="cls-20" x1="37.47" y1="104.46" x2="124.3" y2="154.96"/><g class="cls-21"><path class="cls-22" d="M59.61,141.41a6.38,6.38,0,0,1-3-5.64c0-2.63,1.28-3.21,3-2.24a5.46,5.46,0,0,1,2.21,2.41l-.67.34a3.86,3.86,0,0,0-1.54-1.75c-.65-.37-1.19-.39-1.54,0s-.44.84-.44,1.81a5.09,5.09,0,0,0,.44,2.32,3.81,3.81,0,0,0,1.54,1.76,1.23,1.23,0,0,0,1.54,0l.67,1.12C61.12,142,60.54,141.94,59.61,141.41Z"/><path class="cls-22" d="M67.91,146.08v-.86a1.7,1.7,0,0,1-1.89-.13,4.73,4.73,0,0,1-1.73-1.71,5,5,0,0,1-.68-2.55v-4.91l1,.57v4.73a3.32,3.32,0,0,0,1.63,3c1,.58,1.67.26,1.67-1.09v-4.74l1,.57v7.69Z"/><path class="cls-22" d="M75.26,150.31l-3.76-2.16V137l3.64,2.09A5.52,5.52,0,0,1,78,143.72c0,1.17-.61,1.74-1.43,1.62a5.14,5.14,0,0,1,1.58,3.55C78.14,150.9,77,151.29,75.26,150.31Zm-.2-10.18-2.53-1.46v3.86L75.06,144c1.07.61,1.9.48,1.9-.85A3.52,3.52,0,0,0,75.06,140.13Zm.11,5-2.64-1.51v4.08l2.64,1.51c1.19.69,1.94.32,1.94-.93A3.73,3.73,0,0,0,75.17,145.11Z"/><path class="cls-22" d="M80.58,153.37V142.24l1,.59V152.9l5,2.84v1.06Z"/><path class="cls-22" d="M94,161.08l-.78-3L89,155.69l-.78,2.07-1.1-.63,3.56-9.08.87.5,3.55,13.17ZM91.14,150l-1.82,4.83,3.61,2.08Z"/><path class="cls-22" d="M99.16,164.14a8.42,8.42,0,0,1-3.31-3.38l.7-.4a6.63,6.63,0,0,0,2.64,2.73c1.41.81,2.28.55,2.28-.75a3.15,3.15,0,0,0-.46-1.66,4.24,4.24,0,0,0-1.26-1.25l-1.13-.85a7.41,7.41,0,0,1-1.78-1.87,4.62,4.62,0,0,1-.74-2.5c0-1.89,1.19-2.46,3.1-1.36a7.69,7.69,0,0,1,2.88,2.87l-.66.38a6.07,6.07,0,0,0-2.26-2.24c-1.29-.75-2-.35-2,.89a2.8,2.8,0,0,0,.44,1.53,5.94,5.94,0,0,0,1.3,1.36l1.06.79a6.45,6.45,0,0,1,1.77,1.8,4.94,4.94,0,0,1,.81,2.67C102.5,164.86,101.17,165.3,99.16,164.14Z"/></g><polygon class="cls-1" points="129.34 152.56 125.06 155.03 125.06 262.23 129.34 259.76 129.34 152.56"/><polygon class="cls-5" points="129.34 152.56 125.06 155.03 125.06 262.23 129.34 259.76 129.34 152.56"/><g class="cls-6"><path class="cls-7" d="M116.36,247.12l-71-41V146.31l71,41ZM46.28,205.59l69.17,39.94V187.79L46.28,147.9Z"/><polygon class="cls-7" points="57.86 212.81 56.93 212.28 56.93 153.53 57.86 154.07 57.86 212.81"/><polygon class="cls-7" points="72.52 221.28 71.61 220.74 71.61 161.99 72.52 162.53 72.52 221.28"/><polygon class="cls-7" points="115.9 227.37 45.81 186.9 45.81 185.83 115.9 226.31 115.9 227.37"/><polygon class="cls-7" points="72.06 220.69 57.44 212.25 57.44 192.89 72.06 201.33 72.06 220.69"/></g><g class="cls-21"><path class="cls-22" d="M383.27,142.78a5.78,5.78,0,0,1-2.7-5.13c0-2.38,1.16-2.91,2.7-2a4.93,4.93,0,0,1,2,2.18l-.61.31a3.47,3.47,0,0,0-1.39-1.59c-.59-.34-1.09-.35-1.41,0s-.4.76-.4,1.65a4.61,4.61,0,0,0,.4,2.1,3.47,3.47,0,0,0,1.41,1.6,1.1,1.1,0,0,0,1.39,0l.61,1A1.68,1.68,0,0,1,383.27,142.78Z"/><path class="cls-22" d="M390.81,147v-.78a1.54,1.54,0,0,1-1.72-.12,4.27,4.27,0,0,1-1.57-1.56,4.36,4.36,0,0,1-.62-2.31V137.8l.89.51v4.3a3,3,0,0,0,1.48,2.71c.92.53,1.53.24,1.53-1V140l.89.51v7Z"/><path class="cls-22" d="M399.13,151.81l-2-5.64L395,145v4.48l-.94-.54V138.79l3.37,1.94a5.14,5.14,0,0,1,2.61,4.31c0,1.48-.78,2-1.91,1.61l2.09,5.79Zm-1.77-10.16L395,140.3V144l2.35,1.36c1,.59,1.75.39,1.75-.84A3.34,3.34,0,0,0,397.36,141.65Z"/><path class="cls-22" d="M407.31,156.51l-.71-2.69-3.84-2.21-.71,1.88-1-.57,3.24-8.25.79.45,3.23,12Zm-2.61-10.06L403,150.84l3.29,1.89Z"/><path class="cls-22" d="M415.34,161.13l-4.67-10.8v8.11l-.94-.54V147.79l.89.51,4.67,10.77V151l.94.54v10.11Z"/><path class="cls-22" d="M424,165.18a2.34,2.34,0,0,1-2.23-.34l-3-1.74V153l3,1.74a6.21,6.21,0,0,1,2.23,2.21,8.27,8.27,0,0,1,.86,4.5C424.88,162.85,424.93,164.65,424,165.18Zm-.66-7.85a4.56,4.56,0,0,0-1.73-1.73l-1.92-1.1v8.18l1.92,1.1c.68.39,1.27.53,1.73.25s.58-1.89.58-3.13A7.06,7.06,0,0,0,423.36,157.33Z"/></g><g class="cls-23"><g class="cls-21"><path class="cls-22" d="M298.3,140.69a5.79,5.79,0,0,1-2.69-5.12c0-2.39,1.16-2.91,2.69-2a5,5,0,0,1,2,2.19l-.61.3a3.54,3.54,0,0,0-1.4-1.59c-.59-.34-1.09-.35-1.41,0a2.31,2.31,0,0,0-.39,1.65,4.75,4.75,0,0,0,.39,2.1,3.47,3.47,0,0,0,1.41,1.6,1.11,1.11,0,0,0,1.4,0l.61,1A1.66,1.66,0,0,1,298.3,140.69Z"/><path class="cls-22" d="M305.84,144.94v-.78a1.54,1.54,0,0,1-1.72-.12,4.35,4.35,0,0,1-1.57-1.56,4.45,4.45,0,0,1-.62-2.31v-4.46l.89.51v4.3a3,3,0,0,0,1.49,2.72c.91.52,1.52.23,1.52-1V138l.89.51v7Z"/><path class="cls-22" d="M311.36,148.2a7.67,7.67,0,0,1-3-3.07l.64-.37a6.08,6.08,0,0,0,2.4,2.49c1.29.74,2.08.5,2.08-.68a2.87,2.87,0,0,0-.42-1.51,4,4,0,0,0-1.15-1.14l-1-.77a6.77,6.77,0,0,1-1.62-1.7,4.17,4.17,0,0,1-.67-2.27c0-1.72,1.08-2.24,2.82-1.24a6.93,6.93,0,0,1,2.62,2.62l-.6.34a5.53,5.53,0,0,0-2.06-2c-1.17-.68-1.85-.32-1.85.81a2.49,2.49,0,0,0,.4,1.39,5.26,5.26,0,0,0,1.18,1.23l1,.73a6,6,0,0,1,1.61,1.63,4.52,4.52,0,0,1,.74,2.43C314.41,148.85,313.19,149.25,311.36,148.2Z"/><path class="cls-22" d="M321.37,152.9a2.24,2.24,0,0,1-2.26-.25,6.42,6.42,0,0,1-2.25-2.34c-.83-1.43-.83-2.42-.83-4.57s0-3.13.83-3.61a2.24,2.24,0,0,1,2.25.24,6.47,6.47,0,0,1,2.26,2.35c.82,1.43.82,2.42.82,4.56S322.19,152.42,321.37,152.9Zm-.73-8a4.29,4.29,0,0,0-1.53-1.6,1.53,1.53,0,0,0-1.52-.15c-.55.33-.61,1-.61,3.09s.06,2.84.61,3.81a4.43,4.43,0,0,0,1.52,1.6,1.55,1.55,0,0,0,1.53.15c.55-.33.61-1,.61-3.1S321.19,145.91,320.64,144.94Z"/></g><g class="cls-23"><path class="cls-22" d="M324.4,155.61V145.5l.94.54v9.14l4.5,2.59v1Z"/></g><g class="cls-23"><path class="cls-22" d="M333.11,160.61l-.77-.44-2.9-11.77,1,.57,2.29,9.49L335,151.6l1,.56Z"/><path class="cls-22" d="M337.37,163.06V153l5.46,3.14v1l-4.52-2.6V158l3.86,2.22v1L338.31,159v3.65l4.52,2.61v1Z"/><path class="cls-22" d="M349.84,170.23l-2-5.64-2.12-1.21v4.48l-.94-.54V157.21l3.38,1.94a5.15,5.15,0,0,1,2.61,4.31c0,1.48-.78,2-1.92,1.61l2.09,5.79Zm-1.77-10.16-2.35-1.35v3.7l2.35,1.35c1,.59,1.76.4,1.76-.83A3.33,3.33,0,0,0,348.07,160.07Z"/></g></g><g class="cls-21"><path class="cls-22" d="M214.51,138.65a5.79,5.79,0,0,1-2.69-5.13c0-2.38,1.16-2.91,2.69-2a5,5,0,0,1,2,2.19l-.61.31a3.44,3.44,0,0,0-1.4-1.59c-.59-.34-1.08-.36-1.4,0s-.4.76-.4,1.64a4.58,4.58,0,0,0,.4,2.1,3.48,3.48,0,0,0,1.4,1.61,1.12,1.12,0,0,0,1.4,0l.61,1C215.89,139.18,215.36,139.13,214.51,138.65Z"/><path class="cls-22" d="M222.06,142.9v-.78a1.57,1.57,0,0,1-1.72-.13,4.17,4.17,0,0,1-1.57-1.55,4.4,4.4,0,0,1-.62-2.32v-4.45l.89.51v4.3a3,3,0,0,0,1.48,2.71c.92.53,1.52.24,1.52-1V135.9l.89.51v7Z"/><path class="cls-22" d="M227.9,137.11v9.14l-.94-.54v-9.14l-2.55-1.46v-1l6,3.47v1Z"/><path class="cls-22" d="M232.09,148.66V138.55l5.46,3.14v1l-4.52-2.6v3.56l3.86,2.22v1L233,144.59v3.65l4.52,2.6v1Z"/><path class="cls-22" d="M245.12,156.15l-4.68-10.79v8.1l-.94-.54V142.81l.89.52,4.68,10.76V146l.94.54v10.11Z"/><path class="cls-22" d="M250.81,159.51a7.67,7.67,0,0,1-3-3.07l.64-.37a6.08,6.08,0,0,0,2.4,2.49c1.28.74,2.08.5,2.08-.68a2.87,2.87,0,0,0-.42-1.51,4,4,0,0,0-1.15-1.14l-1-.78a6.58,6.58,0,0,1-1.62-1.69,4.18,4.18,0,0,1-.67-2.28c0-1.71,1.08-2.23,2.82-1.23a6.93,6.93,0,0,1,2.62,2.62l-.6.34a5.53,5.53,0,0,0-2.06-2c-1.17-.68-1.85-.32-1.85.8a2.58,2.58,0,0,0,.39,1.4,5.51,5.51,0,0,0,1.19,1.23l1,.73a5.91,5.91,0,0,1,1.6,1.63,4.45,4.45,0,0,1,.75,2.43C253.86,160.16,252.64,160.56,250.81,159.51Z"/><path class="cls-22" d="M260.81,164.21a2.23,2.23,0,0,1-2.25-.25,6.34,6.34,0,0,1-2.25-2.34c-.83-1.43-.83-2.42-.83-4.57s0-3.13.83-3.61a2.24,2.24,0,0,1,2.25.24,6.3,6.3,0,0,1,2.25,2.35c.83,1.42.83,2.42.83,4.56S261.64,163.73,260.81,164.21Zm-.73-8a4.27,4.27,0,0,0-1.52-1.6,1.48,1.48,0,0,0-1.52-.15c-.56.33-.62,1-.62,3.09s.06,2.84.62,3.81a4.43,4.43,0,0,0,1.52,1.6,1.53,1.53,0,0,0,1.52.15c.56-.34.62-1,.62-3.1S260.64,157.22,260.08,156.25Z"/><path class="cls-22" d="M268.91,169.82l-2-5.63L264.79,163v4.49l-.94-.54V156.81l3.38,1.94a5.14,5.14,0,0,1,2.61,4.31c0,1.48-.78,2-1.92,1.61l2.09,5.79Zm-1.77-10.16-2.35-1.35V162l2.35,1.35c1,.59,1.76.4,1.76-.84A3.34,3.34,0,0,0,267.14,159.66Z"/></g><g class="cls-23"><g class="cls-21"><path class="cls-22" d="M135.85,140.69a5.79,5.79,0,0,1-2.69-5.12c0-2.39,1.16-2.91,2.69-2a4.87,4.87,0,0,1,2,2.19l-.61.3a3.41,3.41,0,0,0-1.4-1.58c-.59-.35-1.08-.36-1.4,0s-.4.77-.4,1.65a4.61,4.61,0,0,0,.4,2.1,3.45,3.45,0,0,0,1.4,1.6,1.11,1.11,0,0,0,1.4,0l.61,1C137.23,141.23,136.7,141.18,135.85,140.69Z"/><path class="cls-22" d="M143.4,144.94v-.78a1.54,1.54,0,0,1-1.72-.12,4.27,4.27,0,0,1-1.57-1.56,4.36,4.36,0,0,1-.62-2.31v-4.46l.89.51v4.3a3,3,0,0,0,1.48,2.72c.92.52,1.52.23,1.52-1V138l.89.51v7Z"/><path class="cls-22" d="M148.92,148.2a7.7,7.7,0,0,1-3-3.07l.64-.37a6.08,6.08,0,0,0,2.4,2.49c1.29.74,2.08.5,2.08-.68a2.87,2.87,0,0,0-.42-1.51,3.86,3.86,0,0,0-1.15-1.14l-1-.77a7,7,0,0,1-1.62-1.7,4.22,4.22,0,0,1-.66-2.27c0-1.72,1.07-2.24,2.82-1.24a7.08,7.08,0,0,1,2.62,2.62l-.61.34a5.43,5.43,0,0,0-2.05-2c-1.18-.68-1.86-.32-1.86.81a2.58,2.58,0,0,0,.4,1.39,5.11,5.11,0,0,0,1.19,1.23l1,.73a5.83,5.83,0,0,1,1.61,1.63,4.52,4.52,0,0,1,.74,2.43C152,148.86,150.75,149.25,148.92,148.2Z"/></g><g class="cls-23"><path class="cls-22" d="M157.2,148.72l-2.34-1.35v4.16l-.94-.54V140.88l3.28,1.89a5.39,5.39,0,0,1,2.72,4.53C159.92,149.11,158.81,149.64,157.2,148.72Zm-.09-5-2.25-1.29v4l2.25,1.29c1.11.63,1.87.39,1.87-.94A3.53,3.53,0,0,0,157.11,143.68Z"/></g><g class="cls-23"><path class="cls-22" d="M166.22,158.06l-.7-2.69-3.85-2.21L161,155l-1-.58,3.24-8.24.79.45,3.22,12ZM163.61,148,162,152.39l3.29,1.89Z"/><path class="cls-22" d="M173.7,162.36l-2-5.64-2.12-1.22V160l-.94-.54V149.34l3.38,1.94a5.15,5.15,0,0,1,2.61,4.31c0,1.48-.78,2-1.92,1.61L174.8,163Zm-1.77-10.16-2.35-1.35v3.7l2.35,1.35c1,.59,1.76.4,1.76-.83A3.33,3.33,0,0,0,171.93,152.2Z"/><path class="cls-22" d="M179,165.5a7.67,7.67,0,0,1-3-3.07l.64-.37a6.08,6.08,0,0,0,2.4,2.49c1.28.73,2.08.49,2.08-.68a2.87,2.87,0,0,0-.42-1.51,3.87,3.87,0,0,0-1.15-1.14l-1-.78a6.46,6.46,0,0,1-1.62-1.7,4.15,4.15,0,0,1-.67-2.27c0-1.72,1.08-2.23,2.82-1.23a7,7,0,0,1,2.62,2.61l-.6.35a5.63,5.63,0,0,0-2.06-2c-1.17-.67-1.85-.31-1.85.81a2.52,2.52,0,0,0,.39,1.39,5.34,5.34,0,0,0,1.19,1.24l1,.73a5.65,5.65,0,0,1,1.6,1.63,4.42,4.42,0,0,1,.75,2.43C182.06,166.15,180.84,166.55,179,165.5Z"/><path class="cls-22" d="M184,168.29V158.18l5.46,3.14v1l-4.52-2.6v3.57l3.86,2.21v1L185,164.21v3.65l4.52,2.6v1Z"/></g></g><g class="cls-21"><path class="cls-22" d="M468.7,144.43A5.79,5.79,0,0,1,466,139.3c0-2.38,1.16-2.91,2.69-2a5,5,0,0,1,2,2.19l-.61.31a3.49,3.49,0,0,0-1.4-1.59c-.59-.34-1.08-.35-1.41,0a2.28,2.28,0,0,0-.39,1.64,4.79,4.79,0,0,0,.39,2.11,3.53,3.53,0,0,0,1.41,1.6,1.12,1.12,0,0,0,1.4,0l.61,1A1.68,1.68,0,0,1,468.7,144.43Z"/><path class="cls-22" d="M476.24,148.68v-.78a1.53,1.53,0,0,1-1.71-.12,4.38,4.38,0,0,1-1.58-1.56,4.48,4.48,0,0,1-.61-2.32v-4.45l.89.51v4.3a3,3,0,0,0,1.48,2.71c.92.53,1.52.24,1.52-1v-4.3l.89.51v7Z"/><path class="cls-22" d="M480.44,142v3.72l3.86,2.21v1l-3.86-2.22v4.46l-.94-.54V140.44l5.47,3.14v1Z"/><path class="cls-22" d="M487.61,146.07v3.72l3.86,2.21v1l-3.86-2.22v4.46l-.94-.54V144.56l5.47,3.14v1Z"/><path class="cls-22" d="M496.43,151.13v9.15l-.95-.54v-9.15l-2.54-1.46v-1l6,3.47v1Z"/></g><g class="cls-23"><g class="cls-21"><path class="cls-22" d="M530.85,135.4a5.71,5.71,0,0,1-2-2.11c-.75-1.29-.75-2.18-.75-4.12s0-2.82.75-3.25a2,2,0,0,1,2,.22,5.87,5.87,0,0,1,2.75,4.29l-.87-.5a4.11,4.11,0,0,0-1.88-2.92,1.33,1.33,0,0,0-1.36-.15c-.51.3-.56.89-.56,2.8s.05,2.56.56,3.44a3.91,3.91,0,0,0,1.36,1.43c1,.56,1.69.24,1.91-.75l.84.48C533.35,135.83,532.27,136.21,530.85,135.4Z"/><path class="cls-22" d="M538.12,139.57a5.67,5.67,0,0,1-2.76-4.67v-6.1l.84.49v6a4,4,0,0,0,1.92,3.39c1.15.67,1.92.2,1.92-1.18v-6l.85.49v6.1C540.89,139.9,539.72,140.49,538.12,139.57Z"/></g><g class="cls-23"><path class="cls-22" d="M547.78,144.2a2.05,2.05,0,0,1-2-.3l-2.71-1.56v-9.11l2.71,1.56a5.48,5.48,0,0,1,2,2,7.35,7.35,0,0,1,.78,4.05C548.56,142.11,548.61,143.73,547.78,144.2Zm-.59-7.06a4.07,4.07,0,0,0-1.55-1.56l-1.73-1V142l1.73,1a1.56,1.56,0,0,0,1.55.23c.55-.34.53-1.71.53-2.82A6.35,6.35,0,0,0,547.19,137.14Z"/></g><g class="cls-23"><path class="cls-22" d="M555.06,149.23l-.63-2.42-3.46-2-.64,1.69-.9-.51,2.92-7.43.71.4,2.9,10.78Zm-2.35-9.06-1.49,4,3,1.7Z"/><path class="cls-22" d="M566,155.49v-6.92l-2.17,4.24-.72-.41-2.2-6.76v6.92l-.85-.48V143l.85.49,2.58,7.94,2.51-5,.85.49V156Z"/><path class="cls-22" d="M572.05,159v-.6c-.45.26-.85.19-1.58-.23a3.73,3.73,0,0,1-1.55-1.46,3.1,3.1,0,0,1-.41-1.52c0-1.1.67-1.43,1.89-.73l1.65,1v-.6a2.38,2.38,0,0,0-1.4-2.19c-.71-.4-1.06-.41-1.39-.08l-.54-.88c.49-.45,1-.34,1.94.17a3.83,3.83,0,0,1,2.19,3.36v4.27Zm0-2.9-1.54-.88c-.82-.48-1.22-.32-1.22.41a2,2,0,0,0,1.26,1.79c.46.27.87.47,1.22.28.19-.09.28-.4.28-.92Z"/><path class="cls-22" d="M576.33,161.45a2.87,2.87,0,0,1-1.4-2.49V155.1l-.69-.4V154l.69.39v-2l.8.46v2l1.17.68v.7l-1.17-.67v3.83a1.46,1.46,0,0,0,.74,1.35l.43.25v.79Z"/><path class="cls-22" d="M582,164.71v-3.89a2.68,2.68,0,0,0-1.34-2.43c-.82-.47-1.36-.21-1.36.88v3.88l-.8-.46v-9.1l.8.46v3.5a1.36,1.36,0,0,1,1.53.12,4,4,0,0,1,2,3.46v4Z"/><path class="cls-22" d="M592.27,170.61l-.64-2.42-3.46-2-.63,1.7-.9-.52,2.91-7.43.72.41,2.9,10.77Zm-2.35-9.06-1.49,4,3,1.7Z"/><path class="cls-22" d="M597.4,169.81l-2.11-1.2v3.74l-.84-.48v-9.11l2.95,1.7a4.87,4.87,0,0,1,2.44,4.08C599.84,170.17,598.84,170.65,597.4,169.81Zm-.08-4.53-2-1.16v3.62l2,1.16c1,.57,1.68.35,1.68-.85A3.2,3.2,0,0,0,597.32,165.28Z"/><path class="cls-22" d="M601.46,175.89v-9.1l.84.48v9.11Z"/></g></g></svg>